<svg xmlns="http://www.w3.org/2000/svg" width="95" height="25" viewBox="0 0 95 25" fill="none"><g clip-path="url(#clip0_2669_446)"><path d="M60.5608 11.2635C60.5608 11.1966 60.5608 11.0964 60.5942 11.0295C60.5942 10.7956 60.6276 10.5616 60.6276 10.3276C60.6276 10.2608 60.6276 10.2274 60.6276 10.1605C60.5942 7.75412 59.8923 5.54824 58.522 3.77685C56.6838 1.4707 53.8763 0.133798 50.6009 0.000108111C47.2252 -0.133582 43.8495 0.969359 41.0755 3.24209C39.8723 4.24476 38.8362 5.41455 38.0006 6.6846C36.9645 8.18861 36.2292 9.89316 35.8616 11.7648V11.8317C35.7947 12.1659 35.7279 12.4667 35.6945 12.8009C35.6945 12.8343 35.6945 12.9012 35.661 12.9346C35.6276 13.1351 35.6276 13.3357 35.5942 13.5362C35.5942 13.603 35.5942 13.7033 35.5608 13.7702C35.5608 14.0041 35.5273 14.2381 35.5273 14.472C35.5273 14.5389 35.5273 14.5723 35.5273 14.6391C35.5608 17.0456 36.2626 19.2514 37.633 21.0228C39.4378 23.329 42.2453 24.6659 45.5207 24.7661C48.8963 24.8998 52.272 23.7969 55.0461 21.5242C56.2493 20.5215 57.2854 19.3517 58.1209 18.0817C59.157 16.5776 59.8923 14.8731 60.26 13.0014V12.9346C60.3268 12.6004 60.3937 12.2996 60.4271 11.9653C60.4271 11.9319 60.4271 11.8651 60.4605 11.8317C60.5273 11.6645 60.5608 11.464 60.5608 11.2635ZM42.78 17.4801C41.7105 16.1097 41.3428 14.1712 41.7773 12.1325V12.0656C42.6129 7.98807 46.022 5.3477 49.665 5.44797C49.7319 5.44797 49.8322 5.44797 49.899 5.44797C51.3362 5.61508 52.5394 6.25011 53.3749 7.31963C54.4445 8.68995 54.8121 10.6285 54.3776 12.6672V12.7341C53.5086 16.845 50.133 19.4854 46.4565 19.3517C46.3896 19.3517 46.2894 19.3517 46.2225 19.3517C44.8188 19.1846 43.6156 18.5496 42.78 17.4801Z" fill="#00A2E5"></path><path d="M11.4305 5.84906C11.9652 5.74879 12.5334 5.78221 13.0013 5.78221H20.2874L21.3904 0.501465H18.1484H15.5749H13.7032C11.4305 0.501465 9.25802 0.56831 7.48663 1.37045C5.48128 2.27286 4.21123 4.04425 3.64305 6.78489L0 24.6993H3.2754C6.35027 24.6993 6.88503 21.9587 6.95187 21.7247L8.25535 15.2408H17.4799L18.5495 10.0603H9.29144L9.65909 8.22205C9.69251 8.12179 9.75936 7.72072 9.92647 7.15253C9.92647 7.15253 10.0602 6.6512 10.4278 6.31697C10.6952 6.04959 11.0628 5.9159 11.4305 5.84906Z" fill="white"></path><path d="M80.8826 4.34492C80.3144 3.20856 79.2115 2.64037 77.9748 2.64037C75.7355 2.64037 74.0644 4.04412 72.6941 7.08556L68.2489 16.9452C68.2489 13.6364 68.2489 6.65107 68.2489 3.97727C68.2489 2.74064 67.9481 1.80481 67.2796 1.13636C66.6446 0.501337 65.7422 0.167112 64.5724 0.167112C63.5697 0.167112 62.7342 0.401069 62.7008 0.434492L62.4668 0.501337L62.801 20.7219C62.8679 23.5294 63.8371 24.6992 66.3438 25C66.4775 25 66.6446 25.0334 66.7783 25.0334C68.8505 25.0334 70.6887 23.5294 71.8251 20.889L76.1366 11.1297V13.3021L76.2369 20.7553C76.3371 23.6965 77.5069 25 80.0804 25C82.42 25 84.0243 23.7299 85.2943 20.8556L94.3852 0.635027L94.051 0.501337C94.0176 0.467914 92.8812 0 91.5109 0C90.1406 0 88.3024 0.467914 87.3331 2.77406C86.2636 5.28075 81.8184 16.2767 81.785 16.4104L81.5844 16.9118L81.5176 7.62032C81.5176 6.5508 81.3839 5.31417 80.8826 4.34492Z" fill="white"></path><path d="M34.6582 19.3518L33.5553 24.6994H31.2825H27.4724C24.4644 24.6994 21.8574 24.5657 20.5539 22.928C19.685 21.8585 19.4844 20.3211 19.9189 18.2155L23.5954 0.501555H25.2665C25.4336 0.501555 27.2719 0.43471 28.3414 1.73819C29.0432 2.60717 29.2438 3.8438 28.9095 5.41466L26.4697 17.0457C26.2358 18.1486 26.2358 18.7168 26.4697 19.0176C26.7037 19.285 27.2384 19.4187 28.3414 19.4187H31.082H32.8534L34.6582 19.3518Z" fill="white"></path></g><defs><clipPath id="clip0_2669_446"><rect width="94.385" height="25" fill="white"></rect></clipPath></defs></svg>